<svg xmlns="http://www.w3.org/2000/svg" shape-rendering="geometricPrecision" text-rendering="geometricPrecision" image-rendering="optimizeQuality" fill-rule="evenodd" clip-rule="evenodd" viewBox="0 0 378 512.465"><path fill="#fff" d="M200.904 174.843h131.575c-1.933-.61-4-1.343-6.171-2.177l-.084-.034-.695-.266c-6.942-2.697-14.666-6.339-22.592-10.538l-.152-.08-.782-.417-.207-.113a342.094 342.094 0 01-19.644-11.323c-11.246-6.971-22.074-14.577-30.731-21.864-5.738-4.742-10.394-9.183-13.418-12.96l-37.099 59.772zm98.909-74.51l-.004 8.633c1.02 9.139 16.378 12.273 19.029 4.747l.424-1.501c8.066 5.498 15.385 11.236 20.882 16.326 6.387 5.917 10.3 10.418 9.608 11.643-.451.374-1.496.379-3.025.068-2.518-.577-6.431-2.002-11.197-4.007-7.131-2.991-15.744-7.429-24.508-12.545a306.79 306.79 0 01-17.83-11.217c-7.191-4.877-13.821-9.846-18.986-14.299-5.649-4.868-9.513-8.722-10.102-10.442-.188-.545-.046-.878.504-1.028 1.722-.463 7.051 1.033 14.215 3.771 6.218 2.368 13.513 5.781 20.99 9.851zm-12.393 14.76c-6.4-4.443-12.239-8.875-16.9-12.891-4.344-3.748-7.699-7.28-9.672-10.365l-4.501 6.614c.352.994 1.117 2.215 2.241 3.616 8.186 9.002 22.22 19.763 37.39 29.163 16.692 10.343 34.667 18.973 47.628 21.723l3.553-7.504c-3.464-.342-7.922-1.686-13.009-3.806-7.873-3.281-17.647-8.389-27.607-14.297a323.727 323.727 0 01-19.123-12.253z"/><path fill="#424242" fill-rule="nonzero" d="M2.909 144.728l25.182-11.294c30.326-49.241 69.81-84.484 115.93-105.168 46.629-20.914 99.99-26.92 157.459-17.452L325.587 0l18.325 40.857A663498.849 663498.849 0 0018.325 186.89L0 146.033l2.909-1.305z"/><path fill="#fff" d="M132.378 74.523l51.766-23.218a3.402 3.402 0 014.485 1.704l6.816 15.197a3.397 3.397 0 01-1.706 4.481l-51.769 23.22a3.404 3.404 0 01-4.482-1.706l-6.814-15.192a3.41 3.41 0 011.708-4.488l-.004.002z"/><path fill="#373735" d="M18.897 408.948h23.855c3.612 0 6.566 2.962 6.566 6.569v28.147h22.761l3.442 23.834H49.318v28.152c0 3.604-2.962 6.566-6.566 6.566H18.897c-3.604 0-6.566-2.955-6.566-6.566v-80.133c0-3.614 2.954-6.569 6.566-6.569zm299.35 34.716h22.766v-28.147c0-3.614 2.954-6.569 6.565-6.569h23.854c3.614 0 6.568 2.96 6.568 6.569v80.133c0 3.609-2.959 6.566-6.568 6.566h-23.854c-3.608 0-6.565-2.955-6.565-6.566v-28.152h-26.208l3.442-23.834z"/><path fill="#0099CE" fill-rule="nonzero" d="M279.269 512.465h-168.21c-18.735 0-31.249-15.257-33.774-32.747L34.529 183.599h321.268l-42.756 296.119c-2.532 17.562-15.034 32.747-33.772 32.747z"/><path fill="#fff" d="M195.163 236.387c51.977 0 94.116 42.137 94.116 94.114 0 51.979-42.139 94.116-94.116 94.116-51.979 0-94.116-42.137-94.116-94.116 0-51.977 42.137-94.114 94.116-94.114z"/><path fill="#018100" d="M184.252 270.381l26.578-.089c4.806 0 8.076.852 11.228 4.955l7.501 13.398 7.611-4.697-13.11 22.94-26.499-.099 8.066-4.697-13.615-23.109a24.988 24.988 0 00-4.104-5.718 22.333 22.333 0 00-3.656-2.884zm6.412 111.157h-25.498c-5.638-.872-9.255-3.964-10.335-8.186-.922-3.676 0-5.37 1.585-8.532 1.913-3.776 4.162-7.422 6.322-11.099l28.233.099-.307 27.668v.05zm-40.63-9.91l-13.348-22.99c-2.408-4.152-3.31-7.423-1.298-12.229l7.858-13.199-7.868-4.232 26.379-.129 13.15 23.031-8.116-4.668-13.169 23.377a24.758 24.758 0 00-2.973 6.43 22.177 22.177 0 00-.634 4.59l.019.019zm92.071-60.052l12.793 22.049c2.081 5.302 1.269 9.999-1.902 13.021-2.716 2.646-4.648 2.705-8.186 2.904-4.221.228-8.502.099-12.774.069l-14.032-24.497 24.121-13.566-.02.02zm11.703 40.134l-13.21 23.06c-2.388 4.172-4.776 6.58-9.909 7.234l-15.36-.208.267 8.919-13.278-22.792 13.328-22.912v9.364l26.835-.267a24.772 24.772 0 007.036-.674 22.004 22.004 0 004.292-1.745l-.001.021zm-98.462-51.124l12.704-22.099c3.567-4.459 8.027-6.055 12.248-4.866 3.647 1.041 4.668 2.676 6.61 5.639 2.31 3.538 4.341 7.313 6.451 11.029l-14.21 24.399-23.784-14.102h-.019z"/><path d="M321.926 82.526c-4.399-3.115-11.554-5.315-16.636-4.534-5.645.866-5.265 3.393-5.469 7.884l-.003 8.314c-6.814-3.594-13.385-6.618-19.073-8.775-9.659-3.683-17.286-4.794-20.404-2.191-.443.365-.68.706-.978 1.144l-7.945 11.671c-.234.08-.458.194-.672.344l-14.627 11.499c-.504.395-.832.94-.965 1.52l-40.618 65.441h6.368l37.098-59.773c3.026 3.778 7.68 8.22 13.419 12.96 8.658 7.288 19.486 14.894 30.73 21.866a343.005 343.005 0 0019.644 11.322l.209.112.782.418.15.079c7.927 4.201 15.65 7.843 22.594 10.538l.693.268.084.033c2.173.835 4.239 1.566 6.172 2.177h11.371l.02-.101 3.431-17.044c.146-.193.265-.408.357-.637l6.49-13.717.194-.277c2.349-3.783-2.124-10.732-10.525-18.513-6.025-5.579-14.132-11.888-23.002-17.839l3.885-13.768c1.314-5.076 2.361-6.783-2.774-10.421zm-22.113 17.806l-.005 8.635c1.022 9.139 16.379 12.272 19.031 4.745l.422-1.5c8.067 5.497 15.386 11.236 20.883 16.325 6.388 5.918 10.301 10.419 9.608 11.644-.451.374-1.496.379-3.026.068-2.517-.578-6.43-2.002-11.195-4.006-7.133-2.991-15.745-7.431-24.508-12.546a306.806 306.806 0 01-17.83-11.218c-7.191-4.875-13.821-9.845-18.987-14.297-5.65-4.868-9.514-8.722-10.103-10.444-.188-.545-.045-.876.505-1.027 1.722-.463 7.051 1.032 14.216 3.771 6.218 2.368 13.511 5.782 20.989 9.85zm-12.392 14.761c-6.401-4.443-12.24-8.875-16.901-12.891-4.343-3.747-7.7-7.281-9.672-10.365l-4.501 6.615c.352.993 1.116 2.213 2.242 3.614 8.187 9.002 22.219 19.765 37.388 29.164 16.692 10.344 34.668 18.974 47.628 21.723l3.554-7.505c-3.464-.341-7.922-1.686-13.009-3.805-7.874-3.281-17.647-8.388-27.607-14.298a321.508 321.508 0 01-19.122-12.252zm18.424-29.999c-.367.571-.642 1.304-.8 2.216-.649 3.686 1.503 5.337 4.72 6.855 4.191 1.982 9.596 2.381 10.431-.688.515-2.262.619-3.238.449-4.465-.543-3.839-12.151-8.052-14.8-3.918z"/><path d="M62.134 174.843h132.402l14.721-20.985c-16.359-16.101-39.081-9.321-55.228.907-23.863-8.317-77.314 18.79-91.895 20.078z"/></svg>