<svg xmlns="http://www.w3.org/2000/svg" shape-rendering="geometricPrecision" text-rendering="geometricPrecision" image-rendering="optimizeQuality" fill-rule="evenodd" clip-rule="evenodd" viewBox="0 0 384 512.532"><path fill="#373737" d="M6.898 403.826h25.046c3.795 0 6.898 3.108 6.898 6.898v29.558h306.316v-29.558c0-3.795 3.103-6.898 6.898-6.898h25.049c3.792 0 6.895 3.108 6.895 6.898v84.15c0 3.79-3.106 6.895-6.895 6.895h-25.049c-3.79 0-6.898-3.103-6.898-6.895v-29.563H38.842v29.563c0 3.787-3.108 6.895-6.898 6.895H6.898c-3.787 0-6.898-3.103-6.898-6.895v-84.15c0-3.795 3.103-6.898 6.898-6.898z"/><path fill="#008AB9" fill-rule="nonzero" d="M281.138 512.532H102.862c-19.656 0-32.337-15.963-35.435-34.158L5.484 115.254h373.037l-61.951 363.12c-3.1 18.205-15.763 34.158-35.432 34.158z"/><path fill="#0099CE" d="M102.861 504.153h178.276c14.953 0 24.671-12.447 27.186-27.186L368.6 123.633H15.4l60.275 353.334c2.511 14.716 12.234 27.186 27.186 27.186z"/><circle fill="#fff" cx="192" cy="269.041" r="100.096"/><path fill="#373737" d="M179.838 202.021l29.623-.1c5.357-.017 9.011.945 12.524 5.563l8.363 14.941 8.474-5.24-14.606 25.534-29.548-.112 9.031-5.24-15.217-25.761c-1.444-2.444-2.489-4.382-4.569-6.413-1.254-1.224-2.627-2.258-4.075-3.172zm7.146 123.908l-28.421.057c-6.289-.967-10.318-4.37-11.519-9.122-1.036-4.097-.018-5.987 1.765-9.515 2.125-4.206 4.639-8.269 7.043-12.372l31.478.109-.346 30.843zm-45.275-11.07l-14.897-25.605c-2.694-4.631-3.687-8.276-1.445-13.628l8.758-14.713-8.775-4.718 29.416-.117 14.677 25.645-9.054-5.201-14.7 26.058c-1.395 2.472-2.551 4.347-3.27 7.164-.433 1.698-.641 3.404-.71 5.115zm102.637-66.941l14.261 24.584c2.306 5.93 1.374 11.121-2.141 14.538-3.03 2.944-5.177 3.008-9.123 3.228-4.705.262-9.48.117-14.235.086l-15.645-27.315 26.883-15.121zm13.051 44.743l-14.726 25.704c-2.663 4.649-5.324 7.332-11.08 8.066l-17.12-.229.301 9.959-14.81-25.417 14.871-25.533.022 10.442 29.918-.299c2.838-.028 5.04.036 7.839-.75 1.687-.474 3.269-1.146 4.785-1.943zm-109.783-56.967l14.161-24.642c3.982-4.962 8.943-6.75 13.66-5.415 4.065 1.152 5.193 2.979 7.357 6.287 2.579 3.943 4.842 8.152 7.192 12.285l-15.833 27.207-26.537-15.722z"/><path fill-rule="nonzero" d="M7.977 50.947h28.502C86.856 16.799 139.989 0 193.236 0c53.835 0 107.698 17.177 158.85 50.947h23.937a5.006 5.006 0 015.003 5.003v40.342a5.005 5.005 0 01-5.003 5.002H7.977a5.005 5.005 0 01-5.003-5.002V55.95a5.006 5.006 0 015.003-5.003z"/><path fill="#373737" d="M9.317 57.288h28.679c100.37-68.691 211.781-67.166 312.609 0h24.074v37.665H9.317V57.288z"/><path fill="#fff" d="M162.209 40.982h59.578a3.571 3.571 0 013.565 3.561v17.49a3.567 3.567 0 01-3.56 3.56h-59.583a3.575 3.575 0 01-3.561-3.56V44.547a3.58 3.58 0 013.566-3.565h-.005z"/></svg>